<svg viewBox="0 0 440 200" xmlns="http://www.w3.org/2000/svg"><defs><linearGradient id="bg1" x1="0" y1="0" x2="1" y2="1"><stop offset="0%" stop-color="#0a0a0a"/><stop offset="100%" stop-color="#1a1200"/></linearGradient><linearGradient id="pole1" x1="0" y1="0" x2="0" y2="1"><stop offset="0%" stop-color="#cc0000"/><stop offset="33%" stop-color="#ffffff"/><stop offset="66%" stop-color="#0000cc"/><stop offset="100%" stop-color="#cc0000"/></linearGradient></defs><rect width="440" height="200" fill="url(#bg1)"/><g stroke="#1a1500" stroke-width="0.5" opacity="0.6"><line x1="0" y1="40" x2="440" y2="40"/><line x1="0" y1="80" x2="440" y2="80"/><line x1="0" y1="120" x2="440" y2="120"/><line x1="0" y1="160" x2="440" y2="160"/><line x1="88" y1="0" x2="88" y2="200"/><line x1="176" y1="0" x2="176" y2="200"/><line x1="264" y1="0" x2="264" y2="200"/><line x1="352" y1="0" x2="352" y2="200"/></g><rect x="60" y="30" width="16" height="140" rx="8" fill="#222"/><rect x="62" y="30" width="12" height="140" rx="6" fill="url(#pole1)" opacity="0.9"/><rect x="56" y="30" width="24" height="10" rx="3" fill="#c8a96e"/><rect x="56" y="160" width="24" height="10" rx="3" fill="#c8a96e"/><g transform="translate(190,40)" stroke="#c8a96e" stroke-width="2.5" fill="none" stroke-linecap="round"><line x1="30" y1="30" x2="70" y2="90"/><line x1="30" y1="30" x2="10" y2="90"/><ellipse cx="20" cy="98" rx="12" ry="8" stroke="#c8a96e" fill="none"/><line x1="30" y1="30" x2="50" y2="90"/><line x1="30" y1="30" x2="90" y2="90"/><ellipse cx="70" cy="98" rx="12" ry="8" stroke="#c8a96e" fill="none"/><circle cx="30" cy="30" r="4" fill="#c8a96e"/></g><g transform="translate(310,50)"><rect x="0" y="0" width="60" height="12" rx="4" fill="#c8a96e" opacity="0.9"/><rect x="0" y="12" width="60" height="60" rx="2" fill="#2a2a2a" stroke="#c8a96e" stroke-width="1"/><line x1="10" y1="20" x2="50" y2="20" stroke="#c8a96e" stroke-width="0.5" opacity="0.5"/><line x1="10" y1="28" x2="50" y2="28" stroke="#c8a96e" stroke-width="0.5" opacity="0.5"/><line x1="10" y1="36" x2="50" y2="36" stroke="#c8a96e" stroke-width="0.5" opacity="0.5"/><line x1="10" y1="44" x2="50" y2="44" stroke="#c8a96e" stroke-width="0.5" opacity="0.5"/><rect x="22" y="72" width="16" height="30" rx="2" fill="#3a3a3a" stroke="#c8a96e" stroke-width="1"/></g><rect x="0" y="185" width="440" height="3" fill="#c8a96e" opacity="0.6"/><text x="220" y="175" text-anchor="middle" font-family="system-ui" font-size="11" fill="#c8a96e" opacity="0.7" letter-spacing="3">BARBERSHOP · NEXT.JS · MAPBOX</text></svg>