<svg viewBox="0 0 440 200" xmlns="http://www.w3.org/2000/svg"><defs><linearGradient id="bg2" x1="0" y1="0" x2="1" y2="1"><stop offset="0%" stop-color="#0a0014"/><stop offset="100%" stop-color="#001020"/></linearGradient></defs><rect width="440" height="200" fill="url(#bg2)"/><g opacity="0.85"><rect x="20" y="70" width="5" height="60" rx="2" fill="#ef4444"/><rect x="30" y="55" width="5" height="90" rx="2" fill="#ef4444"/><rect x="40" y="80" width="5" height="40" rx="2" fill="#ef4444"/><rect x="50" y="60" width="5" height="80" rx="2" fill="#ef4444"/><rect x="60" y="75" width="5" height="50" rx="2" fill="#ef4444"/><rect x="70" y="50" width="5" height="100" rx="2" fill="#ef4444"/><rect x="80" y="70" width="5" height="60" rx="2" fill="#ef4444"/><text x="52" y="168" text-anchor="middle" font-family="system-ui" font-size="9" fill="#ef4444" opacity="0.7">DRUMS</text></g><g opacity="0.85"><rect x="100" y="85" width="5" height="30" rx="2" fill="#f97316"/><rect x="110" y="65" width="5" height="70" rx="2" fill="#f97316"/><rect x="120" y="90" width="5" height="20" rx="2" fill="#f97316"/><rect x="130" y="70" width="5" height="60" rx="2" fill="#f97316"/><rect x="140" y="80" width="5" height="40" rx="2" fill="#f97316"/><rect x="150" y="60" width="5" height="80" rx="2" fill="#f97316"/><rect x="160" y="85" width="5" height="30" rx="2" fill="#f97316"/><text x="132" y="168" text-anchor="middle" font-family="system-ui" font-size="9" fill="#f97316" opacity="0.7">BASS</text></g><g opacity="0.85"><rect x="180" y="60" width="5" height="80" rx="2" fill="#a855f7"/><rect x="190" y="75" width="5" height="50" rx="2" fill="#a855f7"/><rect x="200" y="45" width="5" height="110" rx="2" fill="#a855f7"/><rect x="210" y="70" width="5" height="60" rx="2" fill="#a855f7"/><rect x="220" y="55" width="5" height="90" rx="2" fill="#a855f7"/><rect x="230" y="80" width="5" height="40" rx="2" fill="#a855f7"/><rect x="240" y="65" width="5" height="70" rx="2" fill="#a855f7"/><text x="212" y="168" text-anchor="middle" font-family="system-ui" font-size="9" fill="#a855f7" opacity="0.7">VOCALS</text></g><g opacity="0.85"><rect x="260" y="75" width="5" height="50" rx="2" fill="#22c55e"/><rect x="270" y="60" width="5" height="80" rx="2" fill="#22c55e"/><rect x="280" y="85" width="5" height="30" rx="2" fill="#22c55e"/><rect x="290" y="65" width="5" height="70" rx="2" fill="#22c55e"/><rect x="300" y="80" width="5" height="40" rx="2" fill="#22c55e"/><rect x="310" y="55" width="5" height="90" rx="2" fill="#22c55e"/><rect x="320" y="70" width="5" height="60" rx="2" fill="#22c55e"/><text x="292" y="168" text-anchor="middle" font-family="system-ui" font-size="9" fill="#22c55e" opacity="0.7">GUITAR</text></g><g opacity="0.85"><rect x="340" y="80" width="5" height="40" rx="2" fill="#38bdf8"/><rect x="350" y="60" width="5" height="80" rx="2" fill="#38bdf8"/><rect x="360" y="90" width="5" height="20" rx="2" fill="#38bdf8"/><rect x="370" y="70" width="5" height="60" rx="2" fill="#38bdf8"/><rect x="380" y="55" width="5" height="90" rx="2" fill="#38bdf8"/><rect x="390" y="80" width="5" height="40" rx="2" fill="#38bdf8"/><rect x="400" y="65" width="5" height="70" rx="2" fill="#38bdf8"/><text x="372" y="168" text-anchor="middle" font-family="system-ui" font-size="9" fill="#38bdf8" opacity="0.7">PIANO</text></g><line x1="10" y1="100" x2="430" y2="100" stroke="#ffffff" stroke-width="0.5" opacity="0.15" stroke-dasharray="4 4"/><text x="220" y="26" text-anchor="middle" font-family="system-ui" font-size="16" font-weight="700" fill="#ffffff" letter-spacing="6" opacity="0.9">AUDY</text><text x="220" y="40" text-anchor="middle" font-family="system-ui" font-size="9" fill="#7dd3fc" opacity="0.6" letter-spacing="2">STEM SEPARATION · CHORD DETECTION</text></svg>