<svg viewBox="0 0 440 200" xmlns="http://www.w3.org/2000/svg"><defs><linearGradient id="bg5" x1="0" y1="0" x2="0" y2="1"><stop offset="0%" stop-color="#e8f4fd"/><stop offset="100%" stop-color="#f0f7ff"/></linearGradient><linearGradient id="sky5" x1="0" y1="0" x2="0" y2="1"><stop offset="0%" stop-color="#bcd5f0"/><stop offset="100%" stop-color="#ddeeff"/></linearGradient></defs><rect width="440" height="200" fill="url(#bg5)"/><rect width="440" height="120" fill="url(#sky5)"/><ellipse cx="80" cy="35" rx="30" ry="14" fill="white" opacity="0.7"/><ellipse cx="100" cy="30" rx="24" ry="14" fill="white" opacity="0.7"/><ellipse cx="340" cy="45" rx="26" ry="12" fill="white" opacity="0.6"/><ellipse cx="360" cy="40" rx="20" ry="12" fill="white" opacity="0.6"/><polygon points="140,90 220,40 300,90" fill="#2563eb"/><rect x="155" y="90" width="130" height="65" fill="#1e3a8a"/><rect x="200" y="120" width="40" height="35" rx="2" fill="#1d4ed8"/><circle cx="234" cy="138" r="3" fill="#93c5fd"/><rect x="165" y="100" width="25" height="22" rx="2" fill="#93c5fd" opacity="0.7"/><rect x="250" y="100" width="25" height="22" rx="2" fill="#93c5fd" opacity="0.7"/><line x1="177" y1="100" x2="177" y2="122" stroke="#1e3a8a" stroke-width="1.5"/><line x1="165" y1="111" x2="190" y2="111" stroke="#1e3a8a" stroke-width="1.5"/><line x1="262" y1="100" x2="262" y2="122" stroke="#1e3a8a" stroke-width="1.5"/><line x1="250" y1="111" x2="275" y2="111" stroke="#1e3a8a" stroke-width="1.5"/><rect x="258" y="55" width="18" height="35" fill="#1e3a8a"/><rect x="0" y="154" width="440" height="46" fill="#166534"/><polygon points="200,155 240,155 260,200 180,200" fill="#d4a574" opacity="0.6"/><circle cx="80" cy="135" r="10" fill="#f59e0b"/><rect x="70" y="146" width="20" height="18" rx="3" fill="#f59e0b" opacity="0.8"/><text x="80" y="175" text-anchor="middle" font-family="system-ui" font-size="8" fill="#fbbf24">BUYER</text><circle cx="160" cy="135" r="10" fill="#f97316"/><rect x="150" y="146" width="20" height="18" rx="3" fill="#f97316" opacity="0.8"/><text x="160" y="175" text-anchor="middle" font-family="system-ui" font-size="8" fill="#fb923c">TRADES</text><circle cx="370" cy="135" r="10" fill="#8b5cf6"/><rect x="360" y="146" width="20" height="18" rx="3" fill="#8b5cf6" opacity="0.8"/><text x="370" y="175" text-anchor="middle" font-family="system-ui" font-size="8" fill="#a78bfa">INVESTOR</text><text x="220" y="192" text-anchor="middle" font-family="system-ui" font-size="10" fill="#ffffff" opacity="0.8" letter-spacing="2">BARSO HOMES · WINNIPEG, MB</text></svg>