<svg viewBox="0 0 440 200" xmlns="http://www.w3.org/2000/svg"><defs><linearGradient id="bg4" x1="0" y1="0" x2="0" y2="1"><stop offset="0%" stop-color="#f7f5f0"/><stop offset="100%" stop-color="#ede8df"/></linearGradient><linearGradient id="sky4" x1="0" y1="0" x2="0" y2="1"><stop offset="0%" stop-color="#d4c9b8"/><stop offset="100%" stop-color="#e8e0d0"/></linearGradient></defs><rect width="440" height="200" fill="url(#bg4)"/><rect width="440" height="130" fill="url(#sky4)"/><rect x="40" y="40" width="50" height="110" fill="#2a2a2a"/><g fill="#c8a96e" opacity="0.6"><rect x="47" y="48" width="8" height="10"/><rect x="60" y="48" width="8" height="10"/><rect x="73" y="48" width="8" height="10"/><rect x="47" y="65" width="8" height="10"/><rect x="60" y="65" width="8" height="10"/><rect x="73" y="65" width="8" height="10"/><rect x="47" y="82" width="8" height="10"/><rect x="60" y="82" width="8" height="10"/><rect x="73" y="82" width="8" height="10"/><rect x="47" y="99" width="8" height="10"/><rect x="73" y="99" width="8" height="10"/></g><rect x="58" y="99" width="14" height="21" fill="#c8a96e" opacity="0.3"/><rect x="100" y="70" width="40" height="80" fill="#3a3530"/><g fill="#ffffff" opacity="0.3"><rect x="106" y="77" width="8" height="8"/><rect x="118" y="77" width="8" height="8"/><rect x="106" y="91" width="8" height="8"/><rect x="118" y="91" width="8" height="8"/><rect x="106" y="105" width="8" height="8"/><rect x="118" y="105" width="8" height="8"/><rect x="106" y="119" width="8" height="8"/><rect x="118" y="119" width="8" height="8"/></g><rect x="150" y="90" width="55" height="60" fill="#1a1a1a"/><rect x="168" y="78" width="20" height="12" fill="#1a1a1a"/><g fill="#c8a96e" opacity="0.4"><rect x="157" y="98" width="10" height="12"/><rect x="172" y="98" width="10" height="12"/><rect x="187" y="98" width="10" height="12"/><rect x="157" y="116" width="10" height="12"/><rect x="187" y="116" width="10" height="12"/></g><rect x="215" y="30" width="70" height="120" fill="#0a0a0a"/><rect x="225" y="20" width="50" height="14" fill="#0a0a0a"/><rect x="242" y="10" width="16" height="14" fill="#c8a96e" opacity="0.9"/><g fill="#c8a96e" opacity="0.5"><rect x="222" y="38" width="12" height="14"/><rect x="240" y="38" width="12" height="14"/><rect x="258" y="38" width="12" height="14"/><rect x="222" y="58" width="12" height="14"/><rect x="240" y="58" width="12" height="14"/><rect x="258" y="58" width="12" height="14"/><rect x="222" y="78" width="12" height="14"/><rect x="258" y="78" width="12" height="14"/><rect x="222" y="98" width="12" height="14"/><rect x="258" y="98" width="12" height="14"/></g><rect x="238" y="78" width="18" height="42" fill="#c8a96e" opacity="0.25"/><rect x="295" y="65" width="35" height="85" fill="#2d2d2d"/><rect x="340" y="80" width="45" height="70" fill="#222"/><rect x="395" y="55" width="45" height="95" fill="#1a1a1a"/><g fill="#c8a96e" opacity="0.3"><rect x="399" y="62" width="10" height="10"/><rect x="414" y="62" width="10" height="10"/><rect x="425" y="62" width="10" height="10"/><rect x="399" y="78" width="10" height="10"/><rect x="425" y="78" width="10" height="10"/></g><rect x="0" y="148" width="440" height="52" fill="#0a0a0a"/><rect x="0" y="148" width="440" height="4" fill="#c8a96e" opacity="0.5"/><text x="220" y="175" text-anchor="middle" font-family="Georgia, serif" font-size="14" fill="#c8a96e" letter-spacing="4" opacity="0.9">CHAPTER REAL ESTATE</text><text x="220" y="190" text-anchor="middle" font-family="system-ui" font-size="9" fill="#c8a96e" letter-spacing="2" opacity="0.5">PROPERTY MANAGEMENT · NEXT.JS 16</text></svg>