<svg viewBox="0 0 440 200" xmlns="http://www.w3.org/2000/svg"><defs><linearGradient id="bg3" x1="0" y1="0" x2="1" y2="1"><stop offset="0%" stop-color="#0f1e2a"/><stop offset="100%" stop-color="#0a1a10"/></linearGradient><radialGradient id="glow3" cx="50%" cy="50%" r="50%"><stop offset="0%" stop-color="#22d3ee" stop-opacity="0.15"/><stop offset="100%" stop-color="transparent"/></radialGradient></defs><rect width="440" height="200" fill="url(#bg3)"/><rect width="440" height="200" fill="url(#glow3)"/><g stroke="#1a3a2a" stroke-width="1" fill="none" opacity="0.7"><path d="M0,60 Q110,50 220,65 T440,55"/><path d="M0,90 Q110,80 220,95 T440,85"/><path d="M0,120 Q110,110 220,125 T440,115"/><path d="M0,150 Q110,140 220,155 T440,145"/><path d="M80,0 Q90,100 85,200"/><path d="M160,0 Q170,100 165,200"/><path d="M240,0 Q250,100 245,200"/><path d="M320,0 Q330,100 325,200"/><path d="M400,0 Q410,100 405,200"/></g><g stroke="#22d3ee" stroke-width="1" fill="none" opacity="0.2"><polygon points="100,40 180,35 220,70 190,110 120,105 80,75"/><polygon points="220,70 300,50 350,85 330,125 250,130 190,110"/><polygon points="120,105 190,110 200,155 140,160 90,140"/><polygon points="250,130 330,125 360,160 290,175 220,165"/></g><circle cx="155" cy="72" r="14" fill="#22d3ee" opacity="0.15"/><circle cx="155" cy="72" r="8" fill="#22d3ee" opacity="0.7"/><line x1="155" y1="80" x2="155" y2="95" stroke="#22d3ee" stroke-width="2" opacity="0.7"/><circle cx="270" cy="90" r="14" fill="#f97316" opacity="0.15"/><circle cx="270" cy="90" r="8" fill="#f97316" opacity="0.7"/><line x1="270" y1="98" x2="270" y2="113" stroke="#f97316" stroke-width="2" opacity="0.7"/><circle cx="200" cy="138" r="14" fill="#22c55e" opacity="0.15"/><circle cx="200" cy="138" r="8" fill="#22c55e" opacity="0.7"/><line x1="200" y1="146" x2="200" y2="161" stroke="#22c55e" stroke-width="2" opacity="0.7"/><circle cx="320" cy="115" r="5" fill="#a855f7" opacity="0.8"/><line x1="320" y1="120" x2="320" y2="130" stroke="#a855f7" stroke-width="1.5" opacity="0.7"/><circle cx="110" cy="125" r="5" fill="#f43f5e" opacity="0.8"/><line x1="110" y1="130" x2="110" y2="140" stroke="#f43f5e" stroke-width="1.5" opacity="0.7"/><g transform="translate(390,30)" opacity="0.5"><circle cx="0" cy="0" r="16" fill="none" stroke="#22d3ee" stroke-width="1"/><polygon points="0,-14 3,-4 0,-7 -3,-4" fill="#22d3ee"/><polygon points="0,14 3,4 0,7 -3,4" fill="#7d8590"/><polygon points="14,0 4,3 7,0 4,-3" fill="#7d8590"/><polygon points="-14,0 -4,3 -7,0 -4,-3" fill="#7d8590"/><text x="0" y="-18" text-anchor="middle" font-family="system-ui" font-size="8" fill="#22d3ee">N</text></g><text x="220" y="185" text-anchor="middle" font-family="system-ui" font-size="10" fill="#22d3ee" opacity="0.6" letter-spacing="2">MALOLOS, BULACAN · MAPBOX · SUPABASE</text></svg>