<svg viewBox="0 0 440 200" xmlns="http://www.w3.org/2000/svg"><defs><linearGradient id="bg6" x1="0" y1="0" x2="1" y2="1"><stop offset="0%" stop-color="#0f172a"/><stop offset="100%" stop-color="#1e1b4b"/></linearGradient><linearGradient id="envGrad" x1="0" y1="0" x2="0" y2="1"><stop offset="0%" stop-color="#4f46e5"/><stop offset="100%" stop-color="#3730a3"/></linearGradient></defs><rect width="440" height="200" fill="url(#bg6)"/><circle cx="30" cy="30" r="2" fill="#818cf8" opacity="0.4"/><circle cx="410" cy="170" r="2" fill="#818cf8" opacity="0.4"/><circle cx="50" cy="160" r="1.5" fill="#6366f1" opacity="0.3"/><circle cx="390" cy="40" r="1.5" fill="#6366f1" opacity="0.3"/><circle cx="200" cy="15" r="2" fill="#a5b4fc" opacity="0.3"/><circle cx="240" cy="185" r="1.5" fill="#a5b4fc" opacity="0.3"/><g stroke="#4f46e5" stroke-width="1" opacity="0.2" stroke-dasharray="4 4"><line x1="70" y1="100" x2="160" y2="100"/><line x1="280" y1="100" x2="370" y2="100"/></g><rect x="140" y="55" width="160" height="110" rx="8" fill="url(#envGrad)" stroke="#6366f1" stroke-width="1.5"/><polygon points="140,55 220,110 300,55" fill="#3730a3"/><polygon points="140,55 220,95 300,55" fill="#4338ca"/><line x1="140" y1="165" x2="185" y2="120" stroke="#6366f1" stroke-width="1" opacity="0.5"/><line x1="300" y1="165" x2="255" y2="120" stroke="#6366f1" stroke-width="1" opacity="0.5"/><text x="220" y="148" text-anchor="middle" font-family="system-ui" font-size="32" font-weight="700" fill="#a5b4fc" opacity="0.9">@</text><g transform="translate(320, 85)"><rect width="65" height="30" rx="15" fill="#4f46e5"/><text x="32" y="20" text-anchor="middle" font-family="system-ui" font-size="11" fill="white" font-weight="600">SEND</text></g><g opacity="0.4"><rect x="30" y="65" width="95" height="8" rx="4" fill="#818cf8"/><rect x="30" y="80" width="75" height="6" rx="3" fill="#6366f1"/><rect x="30" y="93" width="85" height="6" rx="3" fill="#6366f1"/><rect x="30" y="106" width="65" height="6" rx="3" fill="#6366f1"/><rect x="30" y="119" width="90" height="6" rx="3" fill="#6366f1"/><rect x="30" y="132" width="70" height="6" rx="3" fill="#6366f1"/></g><text x="220" y="185" text-anchor="middle" font-family="system-ui" font-size="10" fill="#818cf8" opacity="0.7" letter-spacing="2">EMAIL SENDER · SENDER.NET API · NEXT.JS</text></svg>